<svg width="35" height="29" viewBox="0 0 35 29" fill="none" xmlns="http://www.w3.org/2000/svg">
<g clip-path="url(#clip0)">
<path fill-rule="evenodd" clip-rule="evenodd" d="M32.8621 28.2567C32.8621 28.2567 35.061 28.2567 35.061 26.038C35.061 23.8192 32.8621 17.1628 24.0662 17.1628C15.2703 17.1628 13.0714 23.8192 13.0714 26.038C13.0714 28.2567 15.2703 28.2567 15.2703 28.2567H32.8621ZM15.3187 26.038H32.8137C32.824 26.0367 32.8342 26.0353 32.8445 26.0335L32.8621 26.0291C32.8577 25.4433 32.4948 23.7437 31.1908 22.2128C29.977 20.7772 27.844 19.3816 24.0662 19.3816C20.2906 19.3816 18.1576 20.7795 16.9415 22.2128C15.6376 23.7437 15.2725 25.4455 15.2703 26.0291C15.2864 26.0322 15.3025 26.0352 15.3187 26.038ZM24.0662 12.7253C25.2326 12.7253 26.3512 12.2578 27.176 11.4256C28.0008 10.5934 28.4641 9.46465 28.4641 8.28774C28.4641 7.11083 28.0008 5.98212 27.176 5.14991C26.3512 4.31771 25.2326 3.85019 24.0662 3.85019C22.8998 3.85019 21.7812 4.31771 20.9564 5.14991C20.1316 5.98212 19.6683 7.11083 19.6683 8.28774C19.6683 9.46465 20.1316 10.5934 20.9564 11.4256C21.7812 12.2578 22.8998 12.7253 24.0662 12.7253ZM30.6631 8.28774C30.6631 9.16186 30.4925 10.0274 30.1609 10.835C29.8294 11.6426 29.3435 12.3764 28.7309 12.9945C28.1183 13.6126 27.3911 14.1029 26.5907 14.4374C25.7903 14.7719 24.9325 14.9441 24.0662 14.9441C23.1999 14.9441 22.342 14.7719 21.5417 14.4374C20.7413 14.1029 20.0141 13.6126 19.4015 12.9945C18.7889 12.3764 18.303 11.6426 17.9715 10.835C17.6399 10.0274 17.4693 9.16186 17.4693 8.28774C17.4693 6.52237 18.1643 4.82931 19.4015 3.581C20.6386 2.3327 22.3166 1.63141 24.0662 1.63141C25.8158 1.63141 27.4937 2.3327 28.7309 3.581C29.9681 4.82931 30.6631 6.52237 30.6631 8.28774ZM15.1296 17.7841C14.25 17.5046 13.3432 17.3209 12.4249 17.2361C11.9088 17.1866 11.3907 17.1621 10.8724 17.1628C2.07653 17.1628 -0.122437 23.8192 -0.122437 26.038C-0.122437 27.5179 0.609819 28.2567 2.07653 28.2567H11.3474C11.0214 27.5641 10.8588 26.8046 10.8724 26.038C10.8724 23.797 11.7014 21.5072 13.2693 19.5946C13.8036 18.9423 14.4259 18.3321 15.1296 17.7841ZM10.6965 19.3816C7.0286 19.426 4.94618 20.8016 3.74774 22.2128C2.43496 23.7526 2.07653 25.4589 2.07653 26.038H8.67343C8.67343 23.7193 9.38369 21.4096 10.6965 19.3816ZM3.17601 9.39713C3.17601 7.63176 3.87104 5.9387 5.1082 4.69039C6.34536 3.44209 8.0233 2.7408 9.77291 2.7408C11.5225 2.7408 13.2005 3.44209 14.4376 4.69039C15.6748 5.9387 16.3698 7.63176 16.3698 9.39713C16.3698 11.1625 15.6748 12.8556 14.4376 14.1039C13.2005 15.3522 11.5225 16.0535 9.77291 16.0535C8.0233 16.0535 6.34536 15.3522 5.1082 14.1039C3.87104 12.8556 3.17601 11.1625 3.17601 9.39713ZM9.77291 4.95957C8.60651 4.95957 7.48788 5.4271 6.6631 6.2593C5.83833 7.09151 5.37498 8.22022 5.37498 9.39713C5.37498 10.574 5.83833 11.7028 6.6631 12.535C7.48788 13.3672 8.60651 13.8347 9.77291 13.8347C10.9393 13.8347 12.0579 13.3672 12.8827 12.535C13.7075 11.7028 14.1708 10.574 14.1708 9.39713C14.1708 8.22022 13.7075 7.09151 12.8827 6.2593C12.0579 5.4271 10.9393 4.95957 9.77291 4.95957Z" fill="#23A6F0"/>
</g>
<defs>
<clipPath id="clip0">
<rect width="34.2326" height="28.1916" fill="white" transform="translate(0.115295 0.680481)"/>
</clipPath>
</defs>
</svg>
